<svg width="59" height="44" viewBox="0 0 59 44" fill="none" xmlns="http://www.w3.org/2000/svg">
<path d="M45.5 39.3333C47.7133 39.3333 49.5 37.5466 49.5 35.3333C49.5 33.12 47.7133 31.3333 45.5 31.3333C43.2866 31.3333 41.5 33.12 41.5 35.3333C41.5 37.5466 43.2866 39.3333 45.5 39.3333ZM49.5 15.3333H42.8333V22H54.7266L49.5 15.3333ZM13.5 39.3333C15.7133 39.3333 17.5 37.5466 17.5 35.3333C17.5 33.12 15.7133 31.3333 13.5 31.3333C11.2866 31.3333 9.49996 33.12 9.49996 35.3333C9.49996 37.5466 11.2866 39.3333 13.5 39.3333ZM50.8333 11.3333L58.8333 22V35.3333H53.5C53.5 39.76 49.9266 43.3333 45.5 43.3333C41.0733 43.3333 37.5 39.76 37.5 35.3333H21.5C21.5 39.76 17.9266 43.3333 13.5 43.3333C9.07329 43.3333 5.49996 39.76 5.49996 35.3333H0.166626V5.99996C0.166626 3.03996 2.53996 0.666626 5.49996 0.666626H42.8333V11.3333H50.8333ZM5.49996 5.99996V30H7.52663C8.99329 28.3733 11.1266 27.3333 13.5 27.3333C15.8733 27.3333 18.0066 28.3733 19.4733 30H37.5V5.99996H5.49996ZM24.1666 8.66663L33.5 18L24.1666 27.3333V20.6666H10.8333V15.3333H24.1666V8.66663Z" fill="#162E1A"/>
</svg>
