<svg width="181" height="48" viewBox="0 0 181 48" fill="none" xmlns="http://www.w3.org/2000/svg">
<path d="M14 14C14 8.477 18.477 4 24 4C29.523 4 34 8.477 34 14V31.73C34 31.8016 33.9716 31.8703 33.9209 31.9209C33.8703 31.9716 33.8016 32 33.73 32H14.27C14.1984 32 14.1297 31.9716 14.0791 31.9209C14.0284 31.8703 14 31.8016 14 31.73V14Z" stroke="#162E1A" stroke-width="4"/>
<path d="M21 32V41C21 41.7956 21.3161 42.5587 21.8787 43.1213C22.4413 43.6839 23.2044 44 24 44C24.7956 44 25.5587 43.6839 26.1213 43.1213C26.6839 42.5587 27 41.7956 27 41V32M14 16C14.6566 16.6566 15.4361 17.1775 16.294 17.5328C17.1519 17.8882 18.0714 18.0711 19 18.0711C19.9286 18.0711 20.8481 17.8882 21.706 17.5328C22.5639 17.1775 23.3434 16.6566 24 16C24.6566 15.3434 25.4361 14.8225 26.294 14.4672C27.1519 14.1118 28.0714 13.9289 29 13.9289C29.9286 13.9289 30.8481 14.1118 31.706 14.4672C32.5639 14.8225 33.3434 15.3434 34 16" stroke="#162E1A" stroke-width="4" stroke-linecap="round" stroke-linejoin="round"/>
<path d="M60.35 33V15.5H63.6V33H60.35ZM74.1584 33.175C72.7584 33.175 71.5084 32.8833 70.4084 32.3C69.3251 31.7 68.4751 30.8833 67.8584 29.85C67.2417 28.8167 66.9334 27.6417 66.9334 26.325C66.9334 24.9917 67.2417 23.8167 67.8584 22.8C68.4751 21.7667 69.3251 20.9583 70.4084 20.375C71.5084 19.7917 72.7584 19.5 74.1584 19.5C75.4584 19.5 76.6001 19.7667 77.5834 20.3C78.5834 20.8167 79.3417 21.5833 79.8584 22.6L77.4584 24C77.0584 23.3667 76.5667 22.9 75.9834 22.6C75.4167 22.3 74.8001 22.15 74.1334 22.15C73.3667 22.15 72.6751 22.3167 72.0584 22.65C71.4417 22.9833 70.9584 23.4667 70.6084 24.1C70.2584 24.7167 70.0834 25.4583 70.0834 26.325C70.0834 27.1917 70.2584 27.9417 70.6084 28.575C70.9584 29.1917 71.4417 29.6667 72.0584 30C72.6751 30.3333 73.3667 30.5 74.1334 30.5C74.8001 30.5 75.4167 30.35 75.9834 30.05C76.5667 29.75 77.0584 29.2833 77.4584 28.65L79.8584 30.05C79.3417 31.05 78.5834 31.825 77.5834 32.375C76.6001 32.9083 75.4584 33.175 74.1584 33.175ZM88.6395 33.175C87.1561 33.175 85.8561 32.8833 84.7395 32.3C83.6395 31.7 82.7811 30.8833 82.1645 29.85C81.5645 28.8167 81.2645 27.6417 81.2645 26.325C81.2645 24.9917 81.5561 23.8167 82.1395 22.8C82.7395 21.7667 83.5561 20.9583 84.5895 20.375C85.6395 19.7917 86.8311 19.5 88.1645 19.5C89.4645 19.5 90.6228 19.7833 91.6395 20.35C92.6561 20.9167 93.4561 21.7167 94.0395 22.75C94.6228 23.7833 94.9145 25 94.9145 26.4C94.9145 26.5333 94.9061 26.6833 94.8895 26.85C94.8895 27.0167 94.8811 27.175 94.8645 27.325H83.7395V25.25H93.2145L91.9895 25.9C92.0061 25.1333 91.8478 24.4583 91.5145 23.875C91.1811 23.2917 90.7228 22.8333 90.1395 22.5C89.5728 22.1667 88.9145 22 88.1645 22C87.3978 22 86.7228 22.1667 86.1395 22.5C85.5728 22.8333 85.1228 23.3 84.7895 23.9C84.4728 24.4833 84.3145 25.175 84.3145 25.975V26.475C84.3145 27.275 84.4978 27.9833 84.8645 28.6C85.2311 29.2167 85.7478 29.6917 86.4145 30.025C87.0811 30.3583 87.8478 30.525 88.7145 30.525C89.4645 30.525 90.1395 30.4083 90.7395 30.175C91.3395 29.9417 91.8728 29.575 92.3395 29.075L94.0145 31C93.4145 31.7 92.6561 32.2417 91.7395 32.625C90.8395 32.9917 89.8061 33.175 88.6395 33.175ZM106.316 33.25C104.983 33.25 103.741 33.0333 102.591 32.6C101.458 32.15 100.466 31.525 99.6162 30.725C98.7829 29.9083 98.1329 28.95 97.6662 27.85C97.1995 26.75 96.9662 25.55 96.9662 24.25C96.9662 22.95 97.1995 21.75 97.6662 20.65C98.1329 19.55 98.7912 18.6 99.6412 17.8C100.491 16.9833 101.483 16.3583 102.616 15.925C103.75 15.475 104.991 15.25 106.341 15.25C107.775 15.25 109.083 15.5 110.266 16C111.45 16.4833 112.45 17.2083 113.266 18.175L111.166 20.15C110.533 19.4667 109.825 18.9583 109.041 18.625C108.258 18.275 107.408 18.1 106.491 18.1C105.575 18.1 104.733 18.25 103.966 18.55C103.216 18.85 102.558 19.275 101.991 19.825C101.441 20.375 101.008 21.025 100.691 21.775C100.391 22.525 100.241 23.35 100.241 24.25C100.241 25.15 100.391 25.975 100.691 26.725C101.008 27.475 101.441 28.125 101.991 28.675C102.558 29.225 103.216 29.65 103.966 29.95C104.733 30.25 105.575 30.4 106.491 30.4C107.408 30.4 108.258 30.2333 109.041 29.9C109.825 29.55 110.533 29.025 111.166 28.325L113.266 30.325C112.45 31.275 111.45 32 110.266 32.5C109.083 33 107.766 33.25 106.316 33.25ZM116.08 33V19.65H119.055V23.325L118.705 22.25C119.105 21.35 119.73 20.6667 120.58 20.2C121.447 19.7333 122.522 19.5 123.805 19.5V22.475C123.672 22.4417 123.547 22.425 123.43 22.425C123.314 22.4083 123.197 22.4 123.08 22.4C121.897 22.4 120.955 22.75 120.255 23.45C119.555 24.1333 119.205 25.1583 119.205 26.525V33H116.08ZM132.609 33.175C131.126 33.175 129.826 32.8833 128.709 32.3C127.609 31.7 126.751 30.8833 126.134 29.85C125.534 28.8167 125.234 27.6417 125.234 26.325C125.234 24.9917 125.526 23.8167 126.109 22.8C126.709 21.7667 127.526 20.9583 128.559 20.375C129.609 19.7917 130.801 19.5 132.134 19.5C133.434 19.5 134.593 19.7833 135.609 20.35C136.626 20.9167 137.426 21.7167 138.009 22.75C138.593 23.7833 138.884 25 138.884 26.4C138.884 26.5333 138.876 26.6833 138.859 26.85C138.859 27.0167 138.851 27.175 138.834 27.325H127.709V25.25H137.184L135.959 25.9C135.976 25.1333 135.818 24.4583 135.484 23.875C135.151 23.2917 134.693 22.8333 134.109 22.5C133.543 22.1667 132.884 22 132.134 22C131.368 22 130.693 22.1667 130.109 22.5C129.543 22.8333 129.093 23.3 128.759 23.9C128.443 24.4833 128.284 25.175 128.284 25.975V26.475C128.284 27.275 128.468 27.9833 128.834 28.6C129.201 29.2167 129.718 29.6917 130.384 30.025C131.051 30.3583 131.818 30.525 132.684 30.525C133.434 30.525 134.109 30.4083 134.709 30.175C135.309 29.9417 135.843 29.575 136.309 29.075L137.984 31C137.384 31.7 136.626 32.2417 135.709 32.625C134.809 32.9917 133.776 33.175 132.609 33.175ZM149.745 33V30.3L149.57 29.725V25C149.57 24.0833 149.295 23.375 148.745 22.875C148.195 22.3583 147.361 22.1 146.245 22.1C145.495 22.1 144.753 22.2167 144.02 22.45C143.303 22.6833 142.695 23.0083 142.195 23.425L140.97 21.15C141.686 20.6 142.536 20.1917 143.52 19.925C144.52 19.6417 145.553 19.5 146.62 19.5C148.553 19.5 150.045 19.9667 151.095 20.9C152.161 21.8167 152.695 23.2417 152.695 25.175V33H149.745ZM145.545 33.175C144.545 33.175 143.67 33.0083 142.92 32.675C142.17 32.325 141.586 31.85 141.17 31.25C140.77 30.6333 140.57 29.9417 140.57 29.175C140.57 28.425 140.745 27.75 141.095 27.15C141.461 26.55 142.053 26.075 142.87 25.725C143.686 25.375 144.77 25.2 146.12 25.2H149.995V27.275H146.345C145.278 27.275 144.561 27.45 144.195 27.8C143.828 28.1333 143.645 28.55 143.645 29.05C143.645 29.6167 143.87 30.0667 144.32 30.4C144.77 30.7333 145.395 30.9 146.195 30.9C146.961 30.9 147.645 30.725 148.245 30.375C148.861 30.025 149.303 29.5083 149.57 28.825L150.095 30.7C149.795 31.4833 149.253 32.0917 148.47 32.525C147.703 32.9583 146.728 33.175 145.545 33.175ZM173.555 19.5C174.622 19.5 175.564 19.7083 176.38 20.125C177.214 20.5417 177.864 21.1833 178.33 22.05C178.797 22.9 179.03 24 179.03 25.35V33H175.905V25.75C175.905 24.5667 175.647 23.6833 175.13 23.1C174.614 22.5167 173.872 22.225 172.905 22.225C172.222 22.225 171.614 22.375 171.08 22.675C170.564 22.975 170.155 23.4167 169.855 24C169.572 24.5833 169.43 25.325 169.43 26.225V33H166.305V25.75C166.305 24.5667 166.047 23.6833 165.53 23.1C165.014 22.5167 164.272 22.225 163.305 22.225C162.622 22.225 162.014 22.375 161.48 22.675C160.964 22.975 160.555 23.4167 160.255 24C159.972 24.5833 159.83 25.325 159.83 26.225V33H156.705V19.65H159.68V23.2L159.155 22.15C159.605 21.2833 160.255 20.625 161.105 20.175C161.972 19.725 162.955 19.5 164.055 19.5C165.305 19.5 166.389 19.8083 167.305 20.425C168.239 21.0417 168.855 21.975 169.155 23.225L167.93 22.8C168.364 21.8 169.08 21 170.08 20.4C171.08 19.8 172.239 19.5 173.555 19.5Z" fill="#162E1A"/>
</svg>
